<svg width="42" height="27" viewBox="0 0 42 27" fill="none" xmlns="http://www.w3.org/2000/svg">
<path fill-rule="evenodd" clip-rule="evenodd" d="M2.48 0H39.181L39.2672 0.00857432L39.5254 0.0400141L39.6864 0.0833627L39.85 0.137906L40.0022 0.215315L40.143 0.298439L40.278 0.396093C40.6022 0.65047 40.8694 1.13636 40.8899 1.54936L40.907 1.71871V22.2546L40.8985 22.3468L40.8696 22.6078L40.8237 22.7684L40.7691 22.926L40.6889 23.0787L40.6084 23.2164C40.3356 23.6382 39.8505 23.925 39.3505 23.9676L39.181 23.9735H2.38783L2.12654 23.9419L1.96577 23.9019L1.805 23.8442L1.6528 23.7699L1.51204 23.6839C1.08736 23.4095 0.808932 22.9303 0.759628 22.4297L0.75415 22.2548V1.63534L0.78559 1.3743L0.831559 1.21353L0.883244 1.05585L0.960891 0.900797L1.04402 0.763129C1.37223 0.279147 1.90099 0.0138144 2.48 0V0Z" fill="black"/>
<path fill-rule="evenodd" clip-rule="evenodd" d="M2.00617 15.0522V15.2733C1.48003 15.2909 1.6851 15.9576 1.84254 16.2293C2.07239 16.6876 2.196 17.1928 2.25031 17.7013C2.32367 18.4568 1.02558 19.8947 2.10954 20.0798V20.292C0.44752 20.1455 2.19981 18.4173 2.03475 17.5891C1.95973 16.9351 1.6539 16.514 1.45478 15.9135C1.2983 15.4121 1.46002 15.0973 2.00617 15.0522V15.0522Z" fill="white"/>
<path fill-rule="evenodd" clip-rule="evenodd" d="M1.48047 17.319L1.62123 17.4712L1.67006 17.6205L1.65863 17.7699L1.59837 17.8987L1.48047 17.9907V17.319V17.319ZM39.6805 15.0522V15.2733C40.1898 15.3007 40.0028 15.9669 39.8327 16.2293C39.6117 16.6918 39.4765 17.1905 39.4335 17.7013C39.3328 18.4275 40.6587 19.8971 39.5714 20.0798V20.292C41.2223 20.1426 39.4824 18.4182 39.6431 17.5891C39.6936 16.9858 40.043 16.4778 40.2205 15.9135C40.3884 15.4195 40.2152 15.102 39.6805 15.0522V15.0522Z" fill="white"/>
<path fill-rule="evenodd" clip-rule="evenodd" d="M40.2003 17.319L40.077 17.425L40.0196 17.5631L40.0107 17.7148L40.0569 17.8587L40.2003 17.9907V17.319V17.319ZM9.33838 1.29113H9.55941C9.54655 0.869552 10.0574 0.935052 10.3149 1.03842C10.6998 1.26422 11.3293 1.46691 11.7738 1.51192C12.3244 1.63149 12.8573 1.29709 13.3562 1.11607C13.8243 0.952677 14.2168 0.777139 14.3787 1.39998H14.5969C14.4259 -0.250371 12.712 1.49216 11.8743 1.32829C11.2726 1.27041 10.7558 0.937672 10.1942 0.748795C9.70351 0.592787 9.37387 0.758084 9.33838 1.29113Z" fill="white"/>
<path fill-rule="evenodd" clip-rule="evenodd" d="M11.6131 0.771693L11.7137 0.89507L11.8485 0.95533L12.0035 0.961047L12.15 0.915316L12.2908 0.771693H11.6131V0.771693ZM4.57397 1.30236C6.49346 2.2989 7.6634 0.047387 8.10904 1.40001H8.32435C8.28267 0.242218 7.1194 0.776695 6.52085 1.12182C5.84252 1.43693 5.19657 1.40644 4.57373 0.983911V1.30236H4.57397V1.30236Z" fill="white"/>
<path fill-rule="evenodd" clip-rule="evenodd" d="M5.33765 0.771686L5.44102 0.895063L5.57892 0.955323L5.73112 0.961039L5.8776 0.915309L6.01265 0.771686H5.33765V0.771686ZM15.2948 1.29116H15.516C15.5139 0.862909 16.0131 0.939364 16.277 1.03845C16.6605 1.26377 17.2929 1.46955 17.7359 1.51195C18.6369 1.778 20.077 0.254835 20.3437 1.40001H20.5562C20.3809 -0.250583 18.6741 1.4917 17.8335 1.32831C17.2314 1.27258 16.7153 0.936744 16.1534 0.74882C15.6556 0.596861 15.3431 0.746439 15.2948 1.29116V1.29116Z" fill="white"/>
<path fill-rule="evenodd" clip-rule="evenodd" d="M17.5723 0.771742L17.6699 0.89512L17.8107 0.955379L17.9629 0.961096L18.1065 0.915365L18.247 0.771742H17.5723V0.771742ZM21.3603 1.29121H21.5816L21.6044 1.14187L21.7368 1.00992L21.8862 0.961096H22.0212L22.1734 0.992536L22.5352 1.14187C23.0375 1.36553 23.4613 1.49319 24.0115 1.53773C24.4812 1.54106 24.9382 1.27835 25.3698 1.11615C25.8555 0.952759 26.2239 0.774362 26.398 1.40006H26.6131C26.4559 -0.202415 24.7996 1.39435 23.9912 1.33694C23.1007 1.39959 21.5089 -0.104285 21.3603 1.29121V1.29121Z" fill="white"/>
<path fill-rule="evenodd" clip-rule="evenodd" d="M23.6292 0.771727L23.7297 0.895105L23.8678 0.955364L24.0224 0.961081L24.1662 0.91535L24.3042 0.771727H23.6292V0.771727ZM27.2104 1.2912H27.4343C27.4226 0.863665 27.9328 0.939168 28.1927 1.03849C28.5664 1.26143 29.2176 1.47055 29.6515 1.51199C30.1903 1.63227 30.741 1.29763 31.2314 1.11614C31.7063 0.95322 32.0841 0.775776 32.2565 1.40005H32.4749C32.2925 -0.251256 30.5928 1.49246 29.7492 1.32835C29.1473 1.27119 28.6314 0.937262 28.0693 0.748862C27.5763 0.594283 27.2516 0.754578 27.2104 1.2912V1.2912Z" fill="white"/>
<path fill-rule="evenodd" clip-rule="evenodd" d="M29.488 0.771667L29.5912 0.895045L29.7291 0.955304L29.8787 0.961021L30.028 0.91529L30.163 0.771667H29.488Z" fill="white"/>
<path fill-rule="evenodd" clip-rule="evenodd" d="M27.2104 1.2912H27.4343C27.4227 0.863665 27.9328 0.939168 28.1927 1.03849C28.5664 1.26143 29.2176 1.47055 29.6516 1.51199C30.1903 1.63227 30.741 1.29763 31.2314 1.11614C31.7063 0.95322 32.0841 0.775776 32.2565 1.40005H32.4749C32.2925 -0.251256 30.5928 1.49246 29.7492 1.32835C29.1473 1.27119 28.6314 0.937262 28.0693 0.748862C27.5763 0.594283 27.2517 0.754578 27.2104 1.2912V1.2912Z" fill="white"/>
<path fill-rule="evenodd" clip-rule="evenodd" d="M29.488 0.771668L29.5912 0.895046L29.7291 0.955305L29.8787 0.961022L30.028 0.915291L30.163 0.771668H29.488ZM33.1701 1.29114H33.3911L33.4171 1.1418L33.5461 1.00985L33.6983 0.961022H33.8277L33.9827 0.992462C34.3564 1.11179 34.6892 1.33496 35.1401 1.43738C36.2264 1.70272 36.2612 1.3826 37.1965 1.15323V0.889329C36.2371 1.1711 35.9713 1.44739 34.9852 1.09012C34.4074 0.910051 33.2599 0.194796 33.1701 1.29114V1.29114Z" fill="white"/>
<path fill-rule="evenodd" clip-rule="evenodd" d="M35.4474 0.771667L35.5508 0.895045L35.6856 0.955304L35.838 0.961021L35.9845 0.91529L36.1222 0.771667H35.4474ZM2.00621 9.1156V9.33377L1.84258 9.36235L1.71325 9.49144L1.67013 9.64364V9.77559L1.6961 9.92779L1.7535 10.0883C1.98668 10.5692 2.15221 11.0087 2.22152 11.5431C2.48543 12.4061 0.958214 13.9225 2.10958 14.1343V14.352C1.51841 14.3739 1.30119 13.963 1.43743 13.4197C1.63465 12.7536 2.22033 12.1641 1.98906 11.3795C1.89355 10.6588 0.701694 9.24659 2.00621 9.1156V9.1156Z" fill="white"/>
<path fill-rule="evenodd" clip-rule="evenodd" d="M1.48047 11.3795L1.62123 11.5346L1.67006 11.6779L1.65863 11.8301L1.59837 11.9592L1.48047 12.0481V11.3795ZM39.6805 9.1156V9.33377C40.1023 9.34544 40.0385 9.81918 39.9335 10.0883C39.697 10.5271 39.519 11.0477 39.4597 11.5431C39.3228 12.0755 39.717 12.7181 39.9018 13.2304C40.0278 13.6634 40.1547 13.99 39.5714 14.1343V14.352C40.1583 14.3758 40.3767 13.9488 40.2405 13.4198C40.0297 12.7445 39.4714 12.1684 39.6865 11.3795C39.8146 10.826 40.0564 10.4956 40.2205 9.97376C40.3893 9.48073 40.2126 9.1649 39.6805 9.1156V9.1156Z" fill="white"/>
<path fill-rule="evenodd" clip-rule="evenodd" d="M40.2002 11.3796L40.0769 11.4858L40.0195 11.6206L40.0106 11.7757L40.0568 11.9248L40.2002 12.0481V11.3796V11.3796ZM1.65863 3.81329C1.60051 4.08291 1.84393 4.41184 1.9373 4.65383C2.0883 5.04135 2.26503 5.63704 2.24169 6.05123C2.20382 6.48758 1.92944 6.99109 1.77343 7.40553C1.64743 7.85569 1.52929 8.1527 2.1095 8.30656V8.51926C0.692566 8.45114 1.79201 6.94084 1.96588 6.35849C2.3141 5.43435 1.41068 4.68694 1.38281 3.81353H1.65863V3.81329V3.81329Z" fill="white"/>
<path fill-rule="evenodd" clip-rule="evenodd" d="M1.48047 5.54336L1.62123 5.69818L1.67006 5.84466L1.65863 5.99662L1.59837 6.12881L1.48047 6.21765V5.54336V5.54336ZM39.9247 3.74701C40.0175 4.36818 39.4335 5.09797 39.3876 5.77583C39.3275 6.30649 39.5919 6.71259 39.8039 7.18181C39.9768 7.64554 40.2555 8.14453 39.5712 8.30649V8.51919C41.0215 8.43678 39.8251 6.90575 39.6746 6.21789C39.4602 5.29756 40.2941 4.61232 40.2636 3.74725H39.9247V3.74701V3.74701Z" fill="white"/>
<path fill-rule="evenodd" clip-rule="evenodd" d="M40.2005 5.5434L40.0771 5.65248L40.0197 5.79015L40.0109 5.94521L40.0571 6.08859L40.2005 6.21768V5.5434V5.5434ZM2.196 20.8946V21.1268C1.77918 21.1287 1.65247 21.5084 1.73345 21.8585L1.81396 22.0795L1.86564 22.2172L1.92876 22.3411L2.01212 22.4699L2.10406 22.6076L2.21029 22.7598L2.25626 23.2995C1.7425 22.665 0.699987 21.0475 2.196 20.8946V20.8946ZM39.5515 20.8946V21.1268C39.9568 21.1259 40.0897 21.5212 40.0023 21.8585L39.9337 22.0795L39.8763 22.2172L39.8104 22.3411L39.7241 22.4699L39.6353 22.6076L39.526 22.7598L39.4914 23.2995C39.9835 22.6562 41.0472 21.0625 39.5515 20.8946Z" fill="white"/>
<path fill-rule="evenodd" clip-rule="evenodd" d="M3.738 3.00966V1.85901L37.8252 1.87925L37.8311 2.92653H39.0227V23.9733H2.74146V3.02705L3.738 3.00966V3.00966Z" fill="#99C78F"/>
<path fill-rule="evenodd" clip-rule="evenodd" d="M1.86537 0.771636L1.98898 0.648259L2.02042 0.780211L2.11807 0.978139L2.24169 1.11009L2.3796 1.17916L2.50297 1.18488L2.63493 1.07008L2.6466 0.935028L2.59467 0.725667H2.74997C3.09652 1.51523 2.00542 1.62337 1.86537 0.771636V0.771636ZM40.1426 1.0041L40.2636 1.12176L40.1343 1.15892L39.9332 1.26229L39.8039 1.38281L39.7351 1.52048L39.7234 1.64099L39.8444 1.77009L39.979 1.7901L40.1859 1.72698V1.87941C39.4331 2.24931 39.248 1.16702 40.1426 1.0041V1.0041ZM1.52929 1.10152L1.38281 1.20774L1.50619 1.26229L1.68721 1.38281L1.81368 1.52048L1.86537 1.66386L1.85965 1.7901L1.73318 1.9049H1.58955L1.40282 1.81606L1.38281 1.97683C2.09592 2.41341 2.35435 1.38948 1.52929 1.10152ZM39.8099 0.665408L39.7005 0.519165L39.6488 0.648259L39.5252 0.831657L39.3876 0.955273L39.2437 1.00982L39.1203 1.0041L39.0027 0.877865V0.731384L39.0886 0.544889L38.9276 0.519165C38.4908 1.24752 39.5481 1.48951 39.8099 0.665408V0.665408Z" fill="white"/>
<path fill-rule="evenodd" clip-rule="evenodd" d="M3.47677 2.7486H1.85119L1.72758 2.76027L1.58967 2.79457L1.47487 2.93224L1.49202 3.07848L1.53799 3.20496L1.37412 3.27093C0.633379 2.18221 3.09807 2.46898 3.23812 2.49041V0.85769L3.26098 0.700015L3.33863 0.573541L3.51369 0.461597L3.64588 0.430157L3.77807 0.435873L3.93027 0.527811L3.99053 0.625227V0.91533L3.90431 0.794572L3.77807 0.688582L3.6516 0.674053L3.52227 0.748842L3.47654 0.868885V2.7486H3.47677V2.7486ZM38.1527 2.60522V0.983925L38.1384 0.817676L38.0925 0.694298L37.9688 0.61951L37.825 0.636897L37.7016 0.682866L37.6328 0.510661C38.7474 -0.193876 38.3995 2.18959 38.4135 2.36704H40.0565L40.2115 2.39848L40.3435 2.47612L40.4557 2.65119L40.4876 2.78028L40.4757 2.90937L40.3866 3.06729L40.2863 3.11897H39.9936L40.1141 3.04156L40.2201 2.90937L40.2401 2.78886L40.163 2.6569L40.0391 2.61379L38.1527 2.60522V2.60522Z" fill="white"/>
<path fill-rule="evenodd" clip-rule="evenodd" d="M21.2742 7.80731C24.981 7.87567 27.3478 11.4672 27.3339 14.9349C27.3587 18.3835 24.9924 22.0583 21.2742 22.0934C17.5612 22.0714 15.1656 18.3811 15.2056 14.9349C15.1863 11.4579 17.5612 7.87234 21.2742 7.80731V7.80731Z" fill="black"/>
<path fill-rule="evenodd" clip-rule="evenodd" d="M24.0774 13.2876L24.4908 14.166L24.5454 14.3149L24.5568 14.4613L24.4275 14.5847L23.9194 14.5447L23.7756 14.5735L23.7037 14.6995L23.7696 14.8372L24.1057 14.8972L24.1888 15.0266C24.0102 15.2009 23.6944 15.0275 23.4395 15.477L23.5603 15.5634H24.0457L24.1348 15.6951L24.0109 15.7785H23.8616L23.7037 15.8014L23.6374 15.9223C23.822 16.1243 24.4944 16.2186 23.9449 16.7712L23.7756 16.8317H23.6291L23.3938 16.8146L23.2385 16.8L23.0949 16.7712L22.9484 16.7395C22.6073 16.6552 22.2829 16.5176 21.9749 16.3496L21.8456 16.2808L21.7222 16.2032L21.5898 16.1284L21.4662 16.0429L21.2938 15.9852L21.1675 15.9593L21.047 16.0369C21.0713 16.3454 21.8506 16.9951 22.095 17.1356C22.4563 17.4367 23.2861 17.572 22.8474 18.2089L22.6723 18.3582L22.5344 18.4128L22.3851 18.4182L21.9945 18.4359H21.5472L21.3893 18.4242C20.9889 18.4028 20.4823 18.3344 20.0969 18.2294C19.8961 17.6222 19.9695 16.9784 19.9647 16.3556C19.9919 16.0114 19.8211 15.536 19.8642 15.2936L19.9992 15.1964L20.1514 15.2109L20.2662 15.2881L20.3927 15.4029L20.5335 15.4546H20.6626L20.8319 15.3802L20.9698 15.2021L21.0329 15.0528L21.0703 14.8694L21.0903 14.7284L21.1849 14.5995C21.4169 14.377 21.6358 14.1617 21.6272 13.8161C21.5557 12.7991 21.8356 12.6483 22.8162 12.7774L22.8417 12.9065L22.6923 12.987L22.5001 13.1013L22.3651 13.2247L22.4311 13.3486C22.9717 13.3238 23.3562 13.2938 23.8613 13.5634L23.8499 13.3024L23.8728 13.1676L23.9966 13.1387L24.0774 13.2876V13.2876Z" fill="white"/>
<path fill-rule="evenodd" clip-rule="evenodd" d="M19.6112 10.8603C20.2391 10.9136 20.5439 11.2816 20.7457 11.8387C20.8853 12.192 20.9503 12.5495 21.0615 12.9063C21.3042 13.4174 21.106 13.4212 20.5906 13.6008L20.4556 13.6349L20.332 13.6208L20.2083 13.4915L20.1883 13.3221C20.1384 13.0027 20.0416 12.6923 19.9011 12.4011C19.6891 11.854 19.4767 11.4748 19.6112 10.8603V10.8603ZM21.4435 12.1084L21.4204 11.9821L21.4435 11.8445L21.5812 11.7296L21.8196 11.6151L21.9835 11.5434L22.1443 11.4946C22.4711 11.3814 22.8159 11.3259 23.1613 11.3109C24.2355 11.3297 24.4234 11.2535 24.7261 12.3756C24.1736 12.311 23.6431 12.2729 23.0863 12.3096L22.9112 12.3239L22.7159 12.3353L22.5349 12.3613L22.3484 12.3927C21.8265 12.3918 21.671 12.7774 21.4435 12.1084Z" fill="white"/>
<path fill-rule="evenodd" clip-rule="evenodd" d="M23.1554 8.54755C26.6738 10.3187 27.7168 14.4497 26.3658 17.9442L23.7151 17.692C24.291 17.5474 25.1792 16.916 24.6342 16.2658C25.1549 16.0043 25.2249 15.6039 24.7348 15.2476C25.2185 14.8927 25.2961 14.6643 25.0649 14.1484C24.8734 13.7594 24.6581 13.2435 24.6342 12.8114L24.7979 12.8031H24.9355L25.0563 12.7831L25.1887 12.6969L25.2342 12.5592L25.2661 12.3553L25.2404 11.8532L25.1887 11.7673L25.048 11.5348L24.9472 11.3886C24.5209 10.7536 23.9954 10.4068 23.3073 10.1174L23.1554 8.54755V8.54755ZM18.4711 16.6795L18.7236 18.5011L17.1411 19.5772L16.7793 19.1154C18.1217 18.2322 18.1741 18.3103 18.4711 16.6795V16.6795Z" fill="#99C78F"/>
<path fill-rule="evenodd" clip-rule="evenodd" d="M20.5562 10.6681C20.8299 10.867 21.0404 11.087 21.2683 11.3338L21.4091 11.3395L21.5527 11.2735L21.6966 11.213L21.8516 11.1559L22.0153 11.1271L22.136 11.1042C21.4932 10.7734 21.3338 10.6071 20.5562 10.6681V10.6681ZM19.6544 13.018L19.7723 13.5058L19.0054 14.0795L18.9218 13.678L19.6544 13.018ZM19.0685 11.6637L19.0773 12.9406L19.2036 12.9522L19.3041 12.8112L19.0685 11.6637V11.6637ZM18.8761 16.6621C18.9156 16.2891 18.9949 15.914 19.0456 15.5401L19.0599 15.4167L19.0773 15.2928L19.0888 15.1756L19.1059 14.9346L19.1145 14.8136V14.6819L19.1202 14.5526L19.1978 14.4008L19.35 14.3144L19.4734 14.3866L19.4965 14.5526L19.4791 14.6874L19.4591 14.825C19.4398 15.0292 19.3848 15.2766 19.3357 15.4762C19.2242 15.8864 19.0701 16.2839 18.8761 16.6621V16.6621ZM18.4826 12.0481C18.5162 12.4906 18.5143 12.9346 18.5457 13.3767L18.5688 13.612L18.5774 13.7385L18.6005 13.859L18.6234 13.9707L18.6319 14.1112L18.6062 14.2317L18.5228 14.3556L18.3852 14.3927C18.0886 14.0753 18.3433 12.4606 18.4826 12.0481V12.0481ZM17.4946 15.4024L16.6303 17.7954L16.616 17.9531L16.6503 18.1053L16.7451 18.2434L16.8658 18.2084L17.4946 15.4024V15.4024ZM17.0726 14.9977L16.2396 16.5845L16.2053 16.7395L16.2454 16.8772L16.3747 16.8686L17.0726 14.9977V14.9977ZM16.9289 14.6452L16.0127 15.6518L15.9526 15.8011L15.9784 15.9276L16.0589 15.8899L16.9289 14.6452V14.6452ZM20.6769 9.8647L22.0353 9.68392L22.1646 9.62366L22.2161 9.49147L20.6769 9.8647V9.8647ZM20.4471 9.46861L21.7883 9.19041L21.9119 9.12992L21.975 9.00654L21.8831 8.9751L20.4471 9.46861V9.46861ZM19.2895 18.9746L19.5108 19.0323L18.9306 19.8642L18.675 19.818L19.2895 18.9746V18.9746ZM19.9791 19.098L20.2087 19.124L19.7661 20.039L19.5051 20.0307L19.9791 19.098V19.098ZM20.7658 19.2273H20.984L20.6393 20.1943L20.3754 20.2055L20.7658 19.2273V19.2273ZM21.4753 19.3278H21.6964L21.3517 20.2918L21.0845 20.306L21.4753 19.3278Z" fill="white"/>
<path fill-rule="evenodd" clip-rule="evenodd" d="M17.5923 14.0795C17.3556 12.507 18.0811 10.2305 19.7407 9.71533C18.0475 10.6738 17.6588 12.2605 17.8567 14.0795L17.7274 14.1943L17.5923 14.1109V14.0795ZM21.2627 20.8029L21.9891 20.8574L21.6964 21.2359L21.0155 21.1982L21.2627 20.8029V20.8029ZM22.6787 20.6418L23.3994 20.6964L23.1124 21.0806L22.4317 21.0377L22.6787 20.6418ZM21.886 20.1224L22.4745 20.16L22.2361 20.467L21.6964 20.4382L21.886 20.1224V20.1224ZM23.302 19.9647L23.8819 20.0019L23.6464 20.306L23.1124 20.2777L23.302 19.9647V19.9647ZM22.4631 19.4743L22.9943 19.511L22.7877 19.7954L22.2964 19.7637L22.4631 19.4743ZM23.8731 19.3133L24.4131 19.3504L24.198 19.6348L23.704 19.6031L23.8731 19.3133V19.3133ZM23.0202 19.0668L23.4139 19.098L23.256 19.299L22.9026 19.2728L23.0202 19.0668V19.0668ZM24.4364 18.9091L24.8325 18.9374L24.6718 19.1385L24.3097 19.1151L24.4364 18.9091ZM20.2087 14.7195L20.3092 14.5735L20.4614 14.4842L20.5908 14.4558L20.723 14.4384H20.8149L20.8321 14.599L20.8149 14.7395L20.7746 14.8572L20.6999 14.9977L20.6339 15.0782L20.5103 15.0865L20.3638 15.0094L20.249 14.8772L20.2087 14.7195V14.7195Z" fill="white"/>
<path fill-rule="evenodd" clip-rule="evenodd" d="M34.0285 4.55926L34.1661 4.66263L34.3071 4.7286L34.4446 4.76576L34.5656 4.78291L34.7092 4.76576L34.824 4.63667C34.5977 4.3437 33.6614 4.27368 34.1747 3.54628C34.537 3.21163 35.1146 3.20687 35.5562 3.36264V3.92213C35.3611 3.79256 35.1143 3.67085 34.8812 3.78755V3.92213C36.5632 4.61285 35.1784 5.55247 34.0285 5.16471V4.55926V4.55926ZM32.1416 5.21925V3.29952H33.6638V3.73563H32.9631V4.01978H33.5916V4.4616H32.9631V4.75719H33.6638V5.21925H32.1416ZM28.2443 4.19484C28.4965 4.19484 28.6158 4.08647 28.6125 3.97405C28.6089 3.86139 28.4829 3.74444 28.2443 3.72706V4.19484V4.19484ZM27.4171 5.25069V3.29976H28.1754C28.6768 3.31405 29.4702 3.31905 29.4416 4.0717C29.4211 4.61999 28.6573 4.63595 28.2443 4.62261V5.25093H27.4171V5.25069V5.25069ZM24.7261 5.21925L25.4557 4.21771L24.8295 3.29952H25.7084L25.9411 3.72134L26.1249 3.29952H27.0812L26.3457 4.21771L27.1127 5.21925H26.1909L25.9411 4.69978L25.6452 5.21925H24.7261ZM22.9398 5.21925V3.29952H24.4589V3.73563H23.7584V4.01978H24.3874V4.4616H23.7584V4.75719H24.4589V5.21925H22.9398ZM19.6714 5.21925V3.29952H20.4327L20.9752 4.21771L20.9698 3.29952H21.7422V5.21925H20.9983L20.4327 4.20342V5.21925H19.6714ZM3.80103 5.26522L4.53629 3.30524H5.50116L6.17902 5.26522H5.32038L5.25702 5.02419H4.72874L4.66538 5.26522H3.80103ZM4.81186 4.59356H5.16532L4.99574 3.9307L4.81186 4.59356ZM17.0365 5.26522L17.7717 3.30524H18.7368L19.4147 5.26522H18.5558L18.4925 5.02419H17.9642L17.9008 5.26522H17.0365V5.26522ZM18.0475 4.59356H18.4008L18.2312 3.9307L18.0475 4.59356ZM16.9202 4.63667L16.8602 5.20187C14.6151 5.708 14.6539 2.86556 16.9059 3.31405V3.85901C15.6355 3.26308 15.7491 5.35073 16.9202 4.63667V4.63667Z" fill="black"/>
<path d="M14.0283 5.21917H14.8296V3.29944H14.0283V5.21917Z" fill="black"/>
<path fill-rule="evenodd" clip-rule="evenodd" d="M12.4543 4.21767C12.9498 4.26721 13.0005 3.68606 12.4543 3.72988V4.21767ZM11.6472 5.25638V3.29949C12.0625 3.33236 13.1658 3.1904 13.5228 3.60674C13.837 3.89708 13.5778 4.45704 13.1636 4.44704L13.7553 5.25614H12.8966L12.4543 4.46133V5.25614H11.6472V5.25638V5.25638ZM30.5363 4.21767C31.0317 4.26721 31.0827 3.68582 30.5363 3.72988V4.21767ZM29.7288 5.25638V3.29949C30.1442 3.3326 31.2475 3.1904 31.6043 3.60674C31.9187 3.89684 31.6595 4.45704 31.2453 4.44704L31.837 5.25614H30.9783L30.5363 4.46133V5.25614H29.7288V5.25638V5.25638ZM9.71741 5.2278V3.29949H11.2079V3.73845H10.5158V4.02546H11.1389V4.47014H10.5158V4.76573H11.2079V5.2278H9.71741ZM6.32835 5.21922L6.66442 3.29949H7.67812L7.90796 4.34105L8.17782 3.29949H9.16555L9.48185 5.21922H8.60869L8.55105 4.03975L8.20664 5.21922H7.55474L7.28774 4.01975L7.19532 5.21922H6.32835ZM35.8953 4.55922L36.0389 4.66259L36.174 4.72857L36.3117 4.76573L36.4353 4.78287L36.5818 4.76573L36.6963 4.63663C36.4596 4.34343 35.533 4.26602 36.0447 3.54624C36.3936 3.21946 36.9905 3.2016 37.4175 3.36261V3.92209L37.2737 3.83325L37.1389 3.77585L36.9724 3.74703L36.8376 3.75298L36.7197 3.84468L36.8459 3.97925L36.9669 4.03951L37.1189 4.10263L37.2682 4.18599C37.5095 4.35272 37.6052 4.64854 37.4178 4.9003C37.1343 5.32712 36.3248 5.27876 35.8956 5.16444V4.55922H35.8953V4.55922ZM41.7298 25.7861C41.8446 25.9014 41.9025 26.0409 41.9025 26.2048C41.9038 26.283 41.8891 26.3607 41.8594 26.4331C41.8298 26.5055 41.7856 26.5711 41.7298 26.6259C41.6757 26.6823 41.6105 26.7269 41.5384 26.7569C41.4663 26.7869 41.3887 26.8016 41.3106 26.8002C41.2325 26.8015 41.155 26.7867 41.0829 26.7567C41.0109 26.7267 40.9457 26.6822 40.8916 26.6259C40.8361 26.5709 40.7922 26.5053 40.7628 26.4329C40.7333 26.3605 40.7188 26.2829 40.7201 26.2048C40.7201 26.0409 40.7773 25.9016 40.8926 25.7861C40.9466 25.7299 41.0115 25.6854 41.0834 25.6554C41.1554 25.6254 41.2327 25.6106 41.3106 25.6117C41.4747 25.6117 41.6143 25.6698 41.7298 25.7861ZM41.7981 25.7196C41.7349 25.6547 41.659 25.6034 41.5751 25.5689C41.4913 25.5344 41.4012 25.5175 41.3106 25.5191C41.2204 25.5175 41.1309 25.5345 41.0476 25.569C40.9643 25.6035 40.889 25.6548 40.8264 25.7196C40.7613 25.7824 40.7099 25.8578 40.6752 25.9413C40.6405 26.0247 40.6233 26.1144 40.6246 26.2048C40.6246 26.3956 40.6911 26.5583 40.8242 26.6924C40.9581 26.8272 41.12 26.8948 41.3106 26.8948C41.4014 26.8963 41.4915 26.8791 41.5754 26.8443C41.6593 26.8094 41.7351 26.7577 41.7981 26.6924C41.8632 26.6291 41.9147 26.5533 41.9494 26.4694C41.9841 26.3856 42.0013 26.2955 41.9999 26.2048C41.9999 26.015 41.9327 25.853 41.7981 25.7196ZM41.413 26.1726C41.3849 26.1838 41.3427 26.1893 41.2865 26.1893H41.1665V25.9164H41.2799C41.3539 25.9164 41.4073 25.9257 41.4406 25.9438C41.4745 25.9628 41.4911 25.9995 41.4911 26.055C41.4909 26.1126 41.4649 26.1517 41.413 26.1726L41.0333 26.5797H41.1665V26.2824H41.2713C41.342 26.2824 41.3913 26.2903 41.4194 26.3067C41.4668 26.3346 41.4909 26.3927 41.4909 26.4804V26.5399L41.4935 26.5647L41.4957 26.573L41.4973 26.5799H41.6221L41.6171 26.5711C41.613 26.5584 41.6109 26.545 41.6109 26.5316C41.6094 26.5129 41.6087 26.4941 41.6088 26.4754V26.4206C41.6073 26.3782 41.5929 26.3374 41.5676 26.3034C41.54 26.2634 41.4966 26.2389 41.4373 26.2293C41.4758 26.2245 41.5131 26.2122 41.5469 26.1931C41.5962 26.161 41.6209 26.1112 41.6209 26.0438C41.6209 25.949 41.5821 25.8852 41.504 25.8525C41.4599 25.8344 41.3913 25.8256 41.2977 25.8256H41.0336V26.5802L41.413 26.1726V26.1726ZM6.84996 13.023V13.511C6.84996 13.6246 6.81471 13.7165 6.74445 13.7868C6.81686 13.8673 6.85306 13.9552 6.85306 14.05V14.558C6.85306 14.6292 6.8271 14.6907 6.77541 14.7417C6.72373 14.7924 6.6618 14.8179 6.58939 14.8179H5.66859C5.65148 14.8182 5.63448 14.815 5.61863 14.8085C5.60279 14.8021 5.58842 14.7924 5.57641 14.7802C5.56413 14.7682 5.55443 14.7538 5.54792 14.7378C5.54141 14.7219 5.53822 14.7048 5.53854 14.6876C5.53854 14.6519 5.55117 14.6211 5.57641 14.5954C5.58841 14.5832 5.60277 14.5736 5.61862 14.5671C5.63447 14.5606 5.65147 14.5575 5.66859 14.5578H6.5863V14.0497C6.58653 14.0324 6.5833 14.0152 6.5768 13.9991C6.5703 13.9831 6.56065 13.9684 6.54843 13.9561C6.53671 13.9434 6.52244 13.9334 6.50656 13.9265C6.49067 13.9197 6.47353 13.9163 6.45625 13.9166H5.93225C5.91508 13.9168 5.89804 13.9136 5.88213 13.9071C5.86622 13.9007 5.85177 13.8911 5.83963 13.8789C5.82749 13.8668 5.8179 13.8524 5.81143 13.8364C5.80496 13.8205 5.80175 13.8035 5.80197 13.7863C5.80197 13.7501 5.81459 13.7194 5.83984 13.6941C5.85188 13.6819 5.86627 13.6722 5.88215 13.6657C5.89804 13.6591 5.91508 13.6558 5.93225 13.656H6.45935C6.47633 13.6562 6.49316 13.6529 6.50887 13.6464C6.52457 13.64 6.53883 13.6304 6.55081 13.6184C6.56328 13.6065 6.57314 13.5921 6.57978 13.5761C6.58642 13.5602 6.5897 13.543 6.58939 13.5258V13.023H5.6593C5.64219 13.0233 5.62519 13.0201 5.60935 13.0136C5.5935 13.0071 5.57914 12.9975 5.56712 12.9853C5.54188 12.9603 5.52902 12.9296 5.52902 12.8931C5.52902 12.8567 5.54188 12.8262 5.56712 12.801C5.57904 12.7886 5.59338 12.7789 5.60924 12.7723C5.6251 12.7658 5.64214 12.7625 5.6593 12.7629H6.58939C6.6618 12.7629 6.72325 12.7883 6.77398 12.8396C6.82472 12.8908 6.84996 12.9522 6.84996 13.023V13.023ZM7.44994 13.0077V12.896C7.4497 12.8789 7.45293 12.862 7.45944 12.8461C7.46595 12.8303 7.4756 12.816 7.48781 12.8041C7.49978 12.7918 7.51414 12.7821 7.52999 12.7756C7.54584 12.7691 7.56285 12.7659 7.57999 12.7662H8.76136V13.5653C8.76178 13.5853 8.75767 13.6051 8.74934 13.6233C8.741 13.6415 8.72867 13.6576 8.71325 13.6703L8.23427 14.0793V14.685C8.23452 14.7199 8.22097 14.7535 8.19656 14.7784C8.17215 14.8033 8.13887 14.8176 8.10398 14.8181C8.08656 14.8183 8.06929 14.8149 8.05317 14.8083C8.03706 14.8017 8.02243 14.7919 8.01014 14.7795C7.99759 14.7678 7.98761 14.7536 7.98085 14.7378C7.97408 14.722 7.97067 14.705 7.97084 14.6878V14.0314C7.97084 13.9816 7.98632 13.9435 8.01728 13.9171L8.49769 13.511V13.0263H7.71027C7.69169 13.1006 7.64834 13.138 7.57999 13.138C7.56283 13.1383 7.54579 13.1351 7.52993 13.1285C7.51408 13.122 7.49974 13.1122 7.48781 13.0999C7.47554 13.0879 7.46585 13.0736 7.45933 13.0577C7.45282 13.0419 7.44962 13.0248 7.44994 13.0077V13.0077ZM9.49472 14.558H9.89462V13.023H9.50067C9.48359 13.0233 9.46663 13.0201 9.45082 13.0136C9.43501 13.0071 9.42069 12.9975 9.40873 12.9853C9.38325 12.9603 9.37062 12.9296 9.37062 12.8931C9.37062 12.8567 9.38325 12.8262 9.40873 12.801C9.42063 12.7887 9.43493 12.7789 9.45075 12.7724C9.46656 12.7658 9.48355 12.7626 9.50067 12.7629H10.155V14.558H10.4155V14.0162C10.4155 13.9809 10.4281 13.9507 10.4534 13.9245C10.4653 13.9121 10.4796 13.9022 10.4955 13.8956C10.5113 13.8889 10.5284 13.8856 10.5456 13.8859C10.5818 13.8859 10.6125 13.8985 10.638 13.9235C10.6503 13.9356 10.66 13.95 10.6665 13.9659C10.673 13.9819 10.6762 13.999 10.6759 14.0162V14.6878C10.6761 14.705 10.6729 14.7221 10.6664 14.738C10.6599 14.754 10.6502 14.7684 10.638 14.7805C10.6259 14.7927 10.6115 14.8023 10.5956 14.8087C10.5797 14.8152 10.5627 14.8184 10.5456 14.8181H9.49472C9.47744 14.8184 9.46029 14.8151 9.44438 14.8084C9.42846 14.8016 9.41413 14.7917 9.4023 14.7791C9.39006 14.7667 9.38041 14.752 9.37391 14.7358C9.36741 14.7197 9.36419 14.7024 9.36443 14.685C9.36443 14.6497 9.37705 14.62 9.4023 14.5952C9.42755 14.5704 9.45804 14.558 9.49472 14.558V14.558ZM12.4724 14.8181H11.2882V13.9199C11.2882 13.8478 11.3137 13.7856 11.3649 13.7339C11.4161 13.6827 11.4773 13.6568 11.5488 13.6568H12.3393V13.023H11.4092C11.3718 13.023 11.3409 13.0103 11.3161 12.9853C11.2913 12.9603 11.2789 12.9296 11.2789 12.8931C11.2789 12.8567 11.2913 12.8262 11.3161 12.801C11.3281 12.7885 11.3426 12.7787 11.3586 12.7721C11.3747 12.7656 11.3919 12.7624 11.4092 12.7629H12.3393C12.4115 12.7629 12.4736 12.7883 12.5253 12.8396C12.577 12.8908 12.6027 12.9522 12.6027 13.023V13.6565C12.6027 13.7301 12.577 13.7918 12.5253 13.843C12.5011 13.8677 12.4722 13.8873 12.4402 13.9005C12.4082 13.9136 12.3739 13.9202 12.3393 13.9197H11.5488V14.558H12.4724C12.5077 14.558 12.5379 14.5706 12.5641 14.5957C12.5766 14.6075 12.5864 14.6219 12.593 14.6377C12.5997 14.6536 12.603 14.6706 12.6027 14.6878C12.603 14.7051 12.5997 14.7222 12.593 14.7382C12.5864 14.7541 12.5766 14.7685 12.5641 14.7805C12.5521 14.7925 12.5378 14.8021 12.5221 14.8085C12.5063 14.815 12.4895 14.8182 12.4724 14.8181V14.8181ZM28.8912 13.023H29.6817V13.4319H28.8912V13.023ZM29.9013 14.7772C29.9135 14.7652 29.9232 14.7508 29.9296 14.735C29.9361 14.7191 29.9393 14.7021 29.9389 14.685V12.8898C29.9389 12.8728 29.9356 12.8559 29.9289 12.8403C29.9223 12.8246 29.9126 12.8104 29.9003 12.7986C29.8885 12.7862 29.8743 12.7764 29.8585 12.7697C29.8427 12.763 29.8258 12.7597 29.8086 12.7598H28.7609C28.7256 12.7598 28.6954 12.7726 28.6694 12.7986C28.6434 12.8246 28.6308 12.8548 28.6308 12.8898V13.5653C28.6308 13.6005 28.6437 13.6308 28.6694 13.6565C28.6812 13.6689 28.6954 13.6787 28.7111 13.6854C28.7268 13.692 28.7438 13.6953 28.7609 13.6951H29.6788V14.5547C29.6616 14.5545 29.6446 14.5578 29.6287 14.5643C29.6129 14.5709 29.5985 14.5806 29.5864 14.5928C29.5614 14.6178 29.5485 14.6485 29.5485 14.685C29.5485 14.7214 29.5614 14.7519 29.5871 14.7772C29.599 14.7894 29.6133 14.7991 29.6291 14.8056C29.6448 14.8122 29.6618 14.8154 29.6788 14.8153H29.8089C29.8261 14.8156 29.8432 14.8124 29.8591 14.8059C29.875 14.7993 29.8893 14.7895 29.9013 14.7772V14.7772ZM31.5931 14.558H30.8057V14.146H31.5931V14.558ZM30.5841 12.801C30.5716 12.8128 30.5616 12.8271 30.5549 12.8429C30.5482 12.8588 30.545 12.8759 30.5453 12.8931V14.6878C30.5453 14.7231 30.5584 14.7538 30.5846 14.7795C30.6108 14.8053 30.6423 14.8181 30.6785 14.8181H31.7234C31.7585 14.8185 31.7923 14.805 31.8174 14.7805C31.8301 14.7687 31.8402 14.7543 31.847 14.7383C31.8538 14.7224 31.8572 14.7052 31.857 14.6878V14.0162C31.857 13.9987 31.8536 13.9814 31.847 13.9652C31.8403 13.9491 31.8305 13.9344 31.8182 13.9221C31.8065 13.9095 31.7924 13.8995 31.7766 13.8927C31.7609 13.8858 31.7439 13.8824 31.7267 13.8825H30.8087V13.023C30.845 13.023 30.8757 13.0103 30.9012 12.9853C30.9266 12.9603 30.939 12.9296 30.939 12.8931C30.9391 12.8761 30.9358 12.8592 30.9293 12.8435C30.9228 12.8277 30.9132 12.8135 30.9012 12.8014C30.8892 12.789 30.8749 12.7792 30.859 12.7725C30.8431 12.7659 30.826 12.7626 30.8087 12.7629H30.6785C30.661 12.7625 30.6436 12.7657 30.6274 12.7723C30.6112 12.7788 30.5965 12.7886 30.5841 12.801V12.801ZM32.717 13.023H33.5107V14.558H32.717V13.023ZM32.5294 14.7448C32.578 14.7936 32.6375 14.8184 32.7075 14.8184H33.5169C33.5859 14.8184 33.6452 14.7936 33.6943 14.7448C33.7434 14.6959 33.7679 14.6369 33.7679 14.5676V13.011C33.7679 12.9427 33.7434 12.8839 33.6943 12.8343C33.6452 12.7848 33.5871 12.7602 33.5197 12.7602H32.7075C32.6746 12.7599 32.6419 12.7662 32.6116 12.779C32.5812 12.7917 32.5538 12.8105 32.531 12.8343C32.5072 12.8571 32.4883 12.8846 32.4755 12.915C32.4626 12.9454 32.4562 12.9781 32.4565 13.011V14.5676C32.4565 14.6366 32.481 14.6957 32.5294 14.7448ZM34.6346 13.023H35.4283V14.558H34.6346V13.023ZM34.4472 14.7448C34.4955 14.7936 34.5551 14.8184 34.6253 14.8184H35.4344C35.5035 14.8184 35.5628 14.7936 35.6119 14.7448C35.661 14.6959 35.6855 14.6369 35.6855 14.5676V13.011C35.6855 12.9427 35.661 12.8839 35.6119 12.8343C35.5628 12.7848 35.5047 12.7602 35.4378 12.7602H34.6253C34.5572 12.7602 34.4982 12.7848 34.4486 12.8343C34.3991 12.8839 34.3743 12.9427 34.3743 13.011V14.5676C34.3741 14.6366 34.3986 14.6957 34.4472 14.7448ZM36.2917 13.0077V12.896C36.2914 12.8789 36.2947 12.8619 36.3013 12.8461C36.3078 12.8303 36.3175 12.816 36.3298 12.8041C36.3418 12.7918 36.3561 12.7821 36.372 12.7755C36.3879 12.769 36.405 12.7658 36.4222 12.7662H37.6033V13.5653C37.6037 13.5853 37.5996 13.6051 37.5913 13.6233C37.583 13.6415 37.5706 13.6576 37.5552 13.6703L37.0765 14.0793V14.685C37.0766 14.7201 37.063 14.7539 37.0384 14.7791C37.0137 14.8038 36.9802 14.8177 36.9453 14.8178C36.9104 14.8179 36.8769 14.8041 36.8521 14.7795C36.8394 14.7679 36.8293 14.7537 36.8225 14.7379C36.8157 14.7221 36.8123 14.705 36.8126 14.6878V14.0314C36.8126 13.9816 36.828 13.9435 36.859 13.9171L37.3396 13.511V13.0263H36.552C36.5334 13.1006 36.4901 13.138 36.4219 13.138C36.4047 13.1383 36.3877 13.1351 36.3718 13.1285C36.3559 13.122 36.3415 13.1122 36.3295 13.0999C36.3173 13.0879 36.3076 13.0735 36.3011 13.0577C36.2946 13.0418 36.2914 13.0248 36.2917 13.0077V13.0077ZM3.95584 21.4271V21.1723H4.90975V21.43C4.90987 21.4424 4.90744 21.4547 4.9026 21.4661C4.89777 21.4776 4.89063 21.4879 4.88164 21.4965C4.87297 21.5052 4.86265 21.5121 4.85128 21.5168C4.83992 21.5215 4.82773 21.5239 4.81543 21.5238C4.80278 21.524 4.79023 21.5216 4.77853 21.5168C4.76683 21.5121 4.75621 21.505 4.74731 21.496C4.73824 21.4876 4.73102 21.4773 4.72611 21.466C4.72119 21.4546 4.71867 21.4424 4.71873 21.43V21.3612H4.52747V22.5692C4.52747 22.5952 4.51794 22.6176 4.49912 22.6361C4.49048 22.6449 4.48017 22.6519 4.4688 22.6566C4.45742 22.6613 4.44522 22.6636 4.43291 22.6635C4.42036 22.6637 4.40789 22.6614 4.39623 22.6568C4.38457 22.6521 4.37394 22.6452 4.36495 22.6365C4.35597 22.6277 4.3488 22.6173 4.34387 22.6057C4.33894 22.5942 4.33633 22.5818 4.33621 22.5692V21.3612H4.14495V21.4271C4.1452 21.4396 4.14287 21.452 4.13812 21.4635C4.13337 21.475 4.12629 21.4854 4.11732 21.4941C4.10866 21.503 4.09824 21.51 4.08672 21.5148C4.0752 21.5195 4.06283 21.5218 4.05039 21.5215C4.03795 21.5218 4.02558 21.5195 4.01407 21.5148C4.00255 21.51 3.99213 21.503 3.98346 21.4941C3.97447 21.4854 3.96736 21.475 3.9626 21.4635C3.95785 21.452 3.95554 21.4396 3.95584 21.4271V21.4271ZM6.83329 22.378V22.0793C6.83329 22.0528 6.84258 22.0305 6.86092 22.0124C6.87926 21.9942 6.90141 21.985 6.92785 21.985C6.95405 21.985 6.97644 21.9942 6.99478 22.0124C7.00374 22.021 7.01082 22.0314 7.01557 22.0429C7.02033 22.0544 7.02265 22.0668 7.0224 22.0793V22.3803C7.02219 22.3926 7.02458 22.4047 7.02943 22.4159C7.03428 22.4271 7.04146 22.4372 7.05051 22.4454C7.05957 22.4542 7.0703 22.4611 7.08209 22.4658C7.09387 22.4704 7.10645 22.4726 7.11911 22.4723H7.31013C7.32274 22.4725 7.33528 22.4702 7.34698 22.4655C7.35869 22.4608 7.36932 22.4538 7.37825 22.4449C7.38755 22.4364 7.39493 22.4261 7.3999 22.4145C7.40487 22.403 7.40731 22.3905 7.40707 22.378V21.2642C7.40681 21.2395 7.41634 21.2158 7.43357 21.1981C7.4508 21.1804 7.47432 21.1703 7.499 21.1699C7.52449 21.1699 7.54688 21.1801 7.56665 21.2006C7.58594 21.2206 7.5957 21.2435 7.5957 21.269V22.378C7.5957 22.4575 7.56689 22.5249 7.50925 22.5804C7.48316 22.6068 7.45211 22.6277 7.4179 22.642C7.38368 22.6563 7.34697 22.6637 7.30989 22.6638H7.11887C7.04003 22.6638 6.97286 22.6354 6.91689 22.5792C6.88999 22.5531 6.86871 22.5218 6.85433 22.4872C6.83995 22.4526 6.8328 22.4154 6.83329 22.378V22.378ZM9.52401 22.5692V21.1699H10.381C10.4058 21.1699 10.4277 21.1797 10.4467 21.1983C10.4558 21.2069 10.463 21.2173 10.4679 21.2287C10.4728 21.2402 10.4754 21.2526 10.4754 21.2651C10.4755 21.2776 10.473 21.29 10.4682 21.3015C10.4633 21.313 10.4562 21.3234 10.4472 21.3321C10.4388 21.3412 10.4285 21.3485 10.4171 21.3535C10.4057 21.3584 10.3934 21.361 10.381 21.3609H9.71265V21.6577H10.1919C10.2181 21.6577 10.2405 21.667 10.2588 21.6851C10.2677 21.6937 10.2747 21.704 10.2795 21.7155C10.2842 21.7269 10.2866 21.7392 10.2864 21.7515C10.2867 21.764 10.2844 21.7764 10.2796 21.7879C10.2748 21.7994 10.2678 21.8098 10.2588 21.8185C10.2502 21.8275 10.2398 21.8346 10.2282 21.8394C10.2167 21.8442 10.2043 21.8466 10.1919 21.8463H9.71265V22.5687C9.71288 22.5812 9.7106 22.5935 9.70595 22.605C9.70131 22.6166 9.69439 22.627 9.68561 22.6358C9.67683 22.6446 9.66637 22.6516 9.65486 22.6563C9.64334 22.6609 9.631 22.6633 9.61857 22.6631C9.60614 22.6633 9.5938 22.6609 9.5823 22.6562C9.5708 22.6515 9.56037 22.6445 9.55164 22.6357C9.54273 22.6271 9.53567 22.6167 9.53092 22.6053C9.52617 22.5939 9.52381 22.5816 9.52401 22.5692V22.5692ZM11.5859 21.3612C11.6121 21.3612 11.6345 21.3705 11.6529 21.3886C11.6712 21.4067 11.6805 21.4295 11.6805 21.4555V21.5653C11.6807 21.5777 11.6784 21.5901 11.6737 21.6016C11.6689 21.6132 11.6618 21.6236 11.6529 21.6322C11.6442 21.6412 11.6338 21.6483 11.6223 21.6531C11.6108 21.6579 11.5984 21.6603 11.5859 21.6601H11.1067V21.3609H11.5859V21.3612V21.3612ZM10.9452 22.6361C10.954 22.645 10.9644 22.652 10.9759 22.6567C10.9874 22.6614 10.9997 22.6637 11.0122 22.6635C11.0375 22.6637 11.0618 22.6539 11.0799 22.6363C11.098 22.6186 11.1084 22.5945 11.1089 22.5692V21.8492H11.2451L11.6893 22.613C11.6974 22.6287 11.7097 22.6417 11.7248 22.6507C11.7399 22.6596 11.7572 22.6642 11.7748 22.6638C11.7997 22.6637 11.8235 22.6538 11.8413 22.6364C11.8505 22.6281 11.8579 22.6181 11.8629 22.6068C11.868 22.5955 11.8706 22.5833 11.8706 22.5709C11.8702 22.55 11.8639 22.5297 11.8525 22.5123L11.4657 21.8494H11.5859C11.6638 21.8494 11.7308 21.8211 11.786 21.7651C11.8415 21.7094 11.8696 21.6422 11.8696 21.5636V21.4557C11.8696 21.3776 11.8417 21.3111 11.7855 21.2542C11.7598 21.2273 11.7288 21.2059 11.6945 21.1914C11.6601 21.1769 11.6232 21.1696 11.5859 21.1699H10.9178V22.5692C10.9178 22.5952 10.9269 22.6176 10.9452 22.6361V22.6361ZM12.7816 21.3588C12.8085 21.3588 12.8285 21.3736 12.8414 21.4026L13.0393 21.8004C13.0579 21.8375 13.0674 21.8761 13.0674 21.9176C13.0674 21.9566 13.0579 21.9957 13.0393 22.0357L12.8369 22.4377C12.824 22.4627 12.8057 22.4749 12.7816 22.4749C12.754 22.4749 12.7347 22.4627 12.7242 22.4377L12.5229 22.0357C12.5052 21.9988 12.496 21.9585 12.496 21.9176C12.496 21.8794 12.5051 21.8404 12.5229 21.8004L12.7187 21.4026C12.7337 21.3738 12.7547 21.3588 12.7816 21.3588V21.3588ZM12.7816 21.1699C12.6782 21.1699 12.6027 21.2159 12.5556 21.3081L12.3462 21.7318C12.3179 21.7903 12.3037 21.8547 12.3048 21.9197C12.3048 21.989 12.3186 22.0514 12.3462 22.1062L12.5556 22.5254C12.5758 22.5649 12.6061 22.598 12.6461 22.624C12.6863 22.6504 12.7313 22.6635 12.7816 22.6635C12.8874 22.6635 12.9624 22.6176 13.0064 22.5254L13.2149 22.1062C13.2439 22.0476 13.2589 21.9852 13.2589 21.9197C13.2594 21.8544 13.2443 21.79 13.2149 21.7318L13.0064 21.3081C12.9617 21.2159 12.8866 21.1699 12.7816 21.1699V21.1699ZM13.912 21.1699H14.4038C14.4636 21.1699 14.5206 21.1954 14.5741 21.2456C14.6277 21.2964 14.6544 21.3574 14.6544 21.4298C14.6547 21.4425 14.6523 21.4552 14.6473 21.467C14.6424 21.4787 14.6351 21.4893 14.6258 21.4981C14.6177 21.5068 14.6079 21.5138 14.597 21.5187C14.5861 21.5235 14.5744 21.5262 14.5625 21.5265C14.5301 21.5265 14.5079 21.5186 14.496 21.5041C14.4841 21.4895 14.4724 21.4622 14.4617 21.4226C14.4508 21.3831 14.4265 21.3631 14.3891 21.3631H13.9222C13.8999 21.3631 13.8887 21.37 13.8887 21.3845C13.8887 21.3933 13.8934 21.404 13.9034 21.4157L14.6037 22.312C14.6359 22.3512 14.6537 22.4003 14.6542 22.4511C14.6543 22.4786 14.649 22.5059 14.6385 22.5314C14.628 22.5569 14.6125 22.58 14.593 22.5995C14.5522 22.6423 14.5065 22.6638 14.4562 22.6638H13.9468C13.9137 22.6639 13.8809 22.6572 13.8506 22.6439C13.8203 22.6306 13.7931 22.6111 13.7708 22.5866C13.721 22.5354 13.6957 22.4787 13.6957 22.4177C13.6957 22.347 13.7288 22.3122 13.7951 22.3122C13.8205 22.3122 13.8425 22.321 13.8603 22.3396C13.869 22.348 13.8759 22.358 13.8805 22.3691C13.8852 22.3802 13.8876 22.3921 13.8875 22.4042C13.8873 22.4137 13.889 22.4232 13.8927 22.432C13.8963 22.4409 13.9017 22.4489 13.9086 22.4555C13.9154 22.4621 13.9236 22.4673 13.9326 22.4706C13.9415 22.474 13.9511 22.4754 13.9606 22.4749H14.4308C14.451 22.4749 14.461 22.467 14.461 22.4511C14.461 22.4437 14.456 22.4339 14.4465 22.4223L13.7467 21.5267C13.715 21.4869 13.6976 21.4376 13.6974 21.3867C13.6972 21.3584 13.7027 21.3303 13.7135 21.3042C13.7243 21.2781 13.7402 21.2543 13.7603 21.2345C13.7798 21.2138 13.8033 21.1974 13.8294 21.1863C13.8555 21.1752 13.8836 21.1696 13.912 21.1699V21.1699ZM15.0877 21.4271V21.1723H16.0416V21.43C16.0417 21.4424 16.0392 21.4547 16.0343 21.4662C16.0294 21.4776 16.0223 21.4879 16.0132 21.4965C16.0044 21.5053 15.9939 21.5122 15.9824 21.517C15.9709 21.5217 15.9585 21.5241 15.9461 21.5241C15.9336 21.5241 15.9213 21.5215 15.9098 21.5167C15.8983 21.5119 15.8879 21.5048 15.8791 21.496C15.8701 21.4875 15.8629 21.4773 15.858 21.4659C15.8531 21.4546 15.8506 21.4424 15.8506 21.43V21.3612H15.6591V22.5692C15.6592 22.5817 15.6568 22.5941 15.652 22.6056C15.6472 22.6171 15.64 22.6275 15.631 22.6361C15.6223 22.6449 15.6119 22.6518 15.6005 22.6565C15.5891 22.6612 15.5768 22.6636 15.5645 22.6635C15.5519 22.6637 15.5395 22.6614 15.5278 22.6568C15.5162 22.6521 15.5055 22.6452 15.4965 22.6365C15.4876 22.6277 15.4804 22.6173 15.4755 22.6057C15.4705 22.5942 15.4679 22.5818 15.4678 22.5692V21.3612H15.2765V21.4271C15.2768 21.4396 15.2745 21.452 15.2698 21.4635C15.265 21.475 15.2579 21.4854 15.2489 21.4941C15.2308 21.5126 15.2082 21.5215 15.182 21.5215C15.1558 21.5215 15.1336 21.5126 15.1153 21.4941C15.1063 21.4854 15.0992 21.475 15.0944 21.4635C15.0897 21.452 15.0874 21.4396 15.0877 21.4271V21.4271Z" fill="black"/>
</svg>
