<svg width="76" height="20" viewBox="0 0 76 20" fill="none" xmlns="http://www.w3.org/2000/svg">
<path d="M34.2666 4.31654C34.3031 4.18919 34.3395 4.05262 34.8585 4.05262C36.4697 4.05262 36.7789 5.17198 36.7789 6.09152C36.7789 6.64659 36.4785 9.45002 33.6114 9.45002C33.1837 9.45002 32.965 9.39556 32.965 9.0952C32.965 8.94941 33.0836 8.54892 33.1653 8.24855L34.2666 4.31654V4.31654ZM32.6014 3.92485C33.0656 3.9613 33.3022 4.00696 33.3022 4.31654C33.3022 4.49877 33.2294 4.78071 33.2021 4.88083L32.0828 8.90417C31.9282 9.46845 31.7916 9.49569 31.3455 9.57738V9.72316H33.6483C36.3244 9.72316 37.7897 8.03909 37.7897 6.20086C37.7897 5.24529 37.2255 3.77949 35.1321 3.77949H32.6018V3.92485H32.6014ZM39.6732 8.78561C39.3184 9.32267 38.9179 9.82328 38.4081 9.82328C37.9804 9.82328 37.9804 9.42279 37.9804 9.25899C37.9804 8.83127 38.6992 6.5737 38.6992 6.319C38.6992 6.12797 38.6263 6.0823 38.1257 6.0823V5.93652C38.4718 5.9185 39.2271 5.77272 39.5819 5.70904L39.6091 5.72706L38.8081 8.65784C38.7717 8.78519 38.6624 9.14924 38.6624 9.25857C38.6624 9.32225 38.726 9.39514 38.8081 9.39514C38.9175 9.39514 39.1814 9.21291 39.5547 8.68507L39.6732 8.78561V8.78561ZM39.4914 4.73505C39.2639 4.73505 39.0545 4.58005 39.0545 4.26167C39.0545 3.94328 39.2639 3.77027 39.4822 3.77027C39.7826 3.77027 39.9371 4.07064 39.9371 4.27088C39.9371 4.4527 39.7914 4.73505 39.4914 4.73505V4.73505ZM43.924 8.77639C43.4691 9.38635 43.1503 9.80485 42.6589 9.80485C42.24 9.80485 42.2219 9.53171 42.2219 9.26779C42.2219 9.04953 42.8956 6.82841 42.8956 6.46436C42.8956 6.30056 42.8411 6.17321 42.6681 6.17321C42.2312 6.17321 41.6577 6.95618 41.3301 7.46559C40.9116 8.09355 40.793 8.48524 40.4202 9.72274H39.7377C40.0197 8.69429 40.6296 6.56448 40.6296 6.37304C40.6296 6.23647 40.5387 6.13634 40.0473 6.13634V5.99056C40.5387 5.89965 41.0301 5.80875 41.5219 5.70863L41.5492 5.72664L40.9664 7.62897L40.9845 7.64698C41.4122 6.97335 42.2496 5.70821 43.0049 5.70821C43.4238 5.70821 43.6329 5.92646 43.6329 6.30894C43.6329 6.70021 42.9048 8.94857 42.9048 9.22171C42.9048 9.35828 43.0321 9.37671 43.0506 9.37671C43.2328 9.37671 43.4603 9.08556 43.7971 8.65742L43.924 8.77639V8.77639ZM45.0891 7.42914C45.4259 6.61894 46.0446 5.91851 46.5364 5.91851C46.7639 5.91851 46.8548 6.09152 46.8548 6.28255C46.8548 6.35544 46.8096 7.44757 44.9345 7.83005L45.0891 7.42914V7.42914ZM46.9637 8.73073C46.5088 9.10399 46.1263 9.41357 45.6349 9.41357C45.2524 9.41357 44.7795 9.20411 44.7795 8.58495C44.7795 8.40272 44.8251 8.2209 44.8704 8.02988L45.1251 7.99343C46.5997 7.78397 47.4551 7.04666 47.4551 6.32779C47.4551 5.9273 47.1728 5.70863 46.7086 5.70863C45.4254 5.70863 43.9873 7.23769 43.9873 8.53928C43.9873 9.11279 44.2784 9.82244 45.2344 9.82244C46.1447 9.82244 46.973 8.98502 47.0731 8.83923L46.9637 8.73073V8.73073ZM47.5192 9.72274L48.2565 7.0651C48.3474 6.72828 48.4019 6.41912 48.4019 6.33701C48.4019 6.20966 48.3567 6.06429 48.0743 6.06429C47.9742 6.06429 47.8741 6.09152 47.7739 6.10953V5.95495C48.2381 5.89127 48.7752 5.77272 49.1849 5.70904L49.2121 5.72706L48.7664 7.53848L48.7844 7.55649L48.8573 7.37426C49.1576 6.77353 49.8497 5.70863 50.4228 5.70863C50.6322 5.70863 50.8597 5.84519 50.8597 6.15436C50.8597 6.62774 50.5321 6.62774 50.432 6.62774C50.0407 6.62774 50.1773 6.30014 49.9586 6.30014C49.6767 6.30014 49.1304 7.31058 49.0575 7.44715C48.7115 8.10235 48.5841 8.51206 48.2109 9.72274H47.5192V9.72274ZM50.3951 8.39392C50.4588 8.79441 50.6046 9.63183 51.3419 9.63183C51.8513 9.63183 51.9971 9.1949 51.9971 8.89453C51.9971 8.29379 50.9142 7.41992 50.9142 6.71906C50.9142 6.43713 51.0415 5.70863 52.0063 5.70863C52.416 5.70863 52.5978 5.86362 52.871 5.86362C53.026 5.86362 53.0804 5.77272 53.1257 5.69941H53.253L53.0708 6.96497H52.925C52.8798 6.44593 52.6611 5.91809 52.0696 5.91809C51.8693 5.91809 51.5782 5.99977 51.5782 6.44593C51.5782 7.01943 52.6883 7.82963 52.6883 8.60296C52.6883 9.59497 51.8417 9.82286 51.3323 9.82286C51.0591 9.82286 50.6951 9.64985 50.4312 9.64985C50.3038 9.64985 50.2674 9.74075 50.2129 9.8413H50.0671L50.2493 8.39392H50.3951V8.39392ZM60.7806 5.46313C60.7626 5.20843 60.6805 3.98853 59.3789 3.98853C57.5587 3.98853 56.63 6.19122 56.63 7.52926C56.63 8.72194 57.1306 9.47725 58.2139 9.47725C59.2424 9.47725 59.8795 8.83085 60.3165 8.40313L60.4711 8.53049C60.1342 8.93098 59.324 9.88654 57.9952 9.88654C56.9391 9.88654 55.6107 9.24936 55.6107 7.42914C55.6107 5.6726 57.2215 3.66093 59.306 3.66093C59.9612 3.66093 60.5167 3.87919 60.7258 3.87919C60.9897 3.87919 61.0441 3.76985 61.0898 3.67894H61.2808L60.944 5.49036L60.7806 5.46313ZM62.4551 8.68507C61.9909 9.38593 61.6357 9.82286 61.0714 9.82286C60.6709 9.82286 60.6344 9.51328 60.6344 9.25857C60.6344 9.06713 61.9545 4.31612 61.9545 4.1251C61.9545 3.88882 61.572 3.88882 61.3353 3.89762V3.75184C61.8087 3.69738 62.2821 3.61527 62.755 3.50635L62.8007 3.55159L61.4262 8.82164C61.4082 8.90375 61.3353 9.14923 61.3353 9.24936C61.3353 9.30382 61.3353 9.43159 61.4719 9.43159C61.6993 9.43159 61.8908 9.17688 62.3365 8.60296L62.4551 8.68507V8.68507ZM66.6602 8.73995C66.0867 9.56816 65.85 9.80485 65.3951 9.80485C64.9854 9.80485 64.9674 9.46803 64.9674 9.33147C64.9674 9.16767 65.1496 8.40313 65.3586 7.65661H65.3314C64.7122 8.68507 64.039 9.82286 63.2196 9.82286C62.892 9.82286 62.719 9.68629 62.719 9.2858C62.719 8.88531 63.4106 6.59129 63.4106 6.3458C63.4106 6.08188 63.2376 6.08188 62.8648 6.08188V5.95495C63.3242 5.89939 63.7801 5.81728 64.23 5.70904L64.2573 5.72706L63.4286 9.0311C63.4014 9.14924 63.4286 9.34026 63.6201 9.34026C64.0114 9.34026 64.5849 8.48482 64.8945 8.01144C65.3406 7.33781 65.5409 6.76431 65.8957 5.79031H66.5693L65.8504 8.51205C65.796 8.69428 65.6774 9.09477 65.6774 9.23134C65.6774 9.27659 65.6862 9.37713 65.7868 9.37713C65.9598 9.37713 66.2145 9.05833 66.5333 8.65784L66.6602 8.73995V8.73995ZM69.9643 6.92853C69.9643 7.69306 69.0996 9.61382 67.8525 9.61382C67.4248 9.61382 67.4248 9.37713 67.4248 9.31345C67.4248 8.35789 68.2986 6.15478 69.2998 6.15478C69.8734 6.15478 69.9643 6.64659 69.9643 6.92853V6.92853ZM67.434 3.87039C67.9618 3.87961 68.0255 3.92485 68.0255 4.13431C68.0255 4.26167 67.9438 4.48914 67.8801 4.74426L66.6422 9.30424V9.34068C66.6422 9.54093 67.3431 9.82328 67.8257 9.82328C69.2182 9.82328 70.738 8.24855 70.738 6.81039C70.738 6.14598 70.2923 5.70904 69.6551 5.70904C68.8361 5.70904 68.2626 6.55568 67.9622 7.02865L67.9442 7.01985C68.2538 5.99098 68.6723 4.29811 68.8725 3.55201L68.8273 3.50677C68.3539 3.59767 67.8898 3.66135 67.4348 3.71623V3.87039H67.434ZM31.3484 16.6697C31.7945 16.5876 31.9311 16.5604 32.0857 15.9961L33.2051 11.9728C33.2595 11.7905 33.3052 11.5723 33.3052 11.4085C33.3052 11.0901 33.0597 11.0629 32.668 11.0172V10.8714H34.9164V11.0172C34.4706 11.0993 34.3248 11.1173 34.1698 11.6908L33.0505 15.723C32.996 15.9052 32.9504 16.087 32.9504 16.3057C32.9504 16.5968 33.1778 16.6245 33.5695 16.6697V16.8155H31.3484V16.6697V16.6697Z" fill="white"/>
<path d="M37.9474 15.8688C37.492 16.4787 37.1736 16.8976 36.6818 16.8976C36.2633 16.8976 36.2449 16.6245 36.2449 16.3606C36.2449 16.1423 36.9185 13.9212 36.9185 13.5571C36.9185 13.3933 36.864 13.266 36.691 13.266C36.2541 13.266 35.6806 14.049 35.353 14.5584C34.9341 15.1863 34.8159 15.5776 34.4427 16.8155H33.7603C34.0422 15.7871 34.6521 13.6568 34.6521 13.4658C34.6521 13.3293 34.5612 13.2291 34.0698 13.2291V13.0833C34.5612 12.9924 35.0526 12.9011 35.5444 12.801L35.5717 12.8194L34.9894 14.7218L35.0074 14.7402C35.4351 14.0666 36.2725 12.8014 37.0278 12.8014C37.4468 12.8014 37.6562 13.0201 37.6562 13.4026C37.6562 13.7938 36.9281 16.0422 36.9281 16.3153C36.9281 16.4519 37.0555 16.4699 37.0739 16.4699C37.2562 16.4699 37.4836 16.1788 37.82 15.751L37.9474 15.8688V15.8688ZM40.3776 13.2107H39.613L38.812 16.2416C38.8028 16.2688 38.8028 16.2868 38.8028 16.3145C38.8028 16.3962 38.8481 16.4691 38.9486 16.4691C39.1308 16.4691 39.4492 16.0414 39.6767 15.7502L39.7948 15.8139C39.3307 16.5147 38.9758 16.9152 38.5025 16.9152C38.3202 16.9152 38.0655 16.8243 38.0655 16.5512C38.0655 16.4146 38.2385 15.8595 38.275 15.7138L38.9302 13.2107H38.2565C38.2478 13.1562 38.2478 13.1106 38.275 13.0649C38.3294 12.9828 38.5841 12.9191 38.7391 12.8374C39.0395 12.6824 39.4765 12.2731 39.7312 11.9543C39.7676 11.9091 39.804 11.827 39.8857 11.8454C39.9494 11.827 39.9678 11.9091 39.9494 11.982L39.6947 12.9195H40.4228L40.3776 13.2107V13.2107ZM41.1873 14.5215C41.5241 13.7113 42.1433 13.0105 42.6347 13.0105C42.8622 13.0105 42.9535 13.1835 42.9535 13.3745C42.9535 13.4474 42.9078 14.5395 41.0332 14.922L41.1873 14.5215V14.5215ZM43.0624 15.8231C42.6075 16.1964 42.225 16.5055 41.7336 16.5055C41.3511 16.5055 40.8782 16.2961 40.8782 15.6773C40.8782 15.4951 40.9234 15.3133 40.9691 15.1222L41.2238 15.0858C42.6984 14.8763 43.5538 14.139 43.5538 13.4197C43.5538 13.0192 43.2715 12.8006 42.8073 12.8006C41.5241 12.8006 40.0856 14.3296 40.0856 15.6312C40.0856 16.2047 40.3767 16.9144 41.3327 16.9144C42.243 16.9144 43.0712 16.077 43.1713 15.9316L43.0624 15.8231ZM43.7997 16.8151L44.537 14.1575C44.6279 13.8206 44.6828 13.5111 44.6828 13.4294C44.6828 13.302 44.6372 13.1562 44.3552 13.1562C44.2551 13.1562 44.155 13.1835 44.0549 13.2019V13.0469C44.519 12.9832 45.0561 12.8647 45.4658 12.801L45.493 12.8194L45.0473 14.6308L45.0653 14.6489L45.1382 14.4666C45.4386 13.8659 46.1302 12.8006 46.7037 12.8006C46.9132 12.8006 47.1406 12.9371 47.1406 13.2467C47.1406 13.7201 46.813 13.7201 46.7129 13.7201C46.3216 13.7201 46.4582 13.3925 46.24 13.3925C45.9576 13.3925 45.4113 14.4029 45.3389 14.5395C44.9928 15.1947 44.8655 15.6044 44.4922 16.8151H43.7997V16.8151Z" fill="white"/>
<path d="M50.7897 15.8687C50.3348 16.4786 50.016 16.8975 49.5246 16.8975C49.1057 16.8975 49.0877 16.6244 49.0877 16.3605C49.0877 16.1422 49.7613 13.9211 49.7613 13.5571C49.7613 13.3933 49.7068 13.2659 49.5338 13.2659C49.0973 13.2659 48.5234 14.0489 48.1958 14.5583C47.7773 15.1862 47.6587 15.5775 47.2855 16.8154H46.603C46.8854 15.787 47.4949 13.6568 47.4949 13.4657C47.4949 13.3292 47.404 13.229 46.9122 13.229V13.0833C47.4036 12.9923 47.8954 12.901 48.3868 12.8009L48.414 12.8193L47.8313 14.7217L47.8493 14.7401C48.277 14.0665 49.1145 12.8013 49.8702 12.8013C50.2891 12.8013 50.4982 13.02 50.4982 13.4025C50.4982 13.7937 49.7701 16.0421 49.7701 16.3152C49.7701 16.4518 49.8974 16.4698 49.9159 16.4698C50.0981 16.4698 50.3256 16.1787 50.6624 15.751L50.7897 15.8687V15.8687Z" fill="white"/>
<path d="M51.4907 15.823C51.4907 15.0036 52.3102 13.0016 53.3751 13.0016C53.639 13.0016 53.8941 13.1746 53.8941 13.6115C53.8941 14.5034 53.0022 16.4694 52.037 16.4694C51.7911 16.4694 51.4907 16.3056 51.4907 15.823ZM54.7948 15.8138C54.3851 16.2143 54.2028 16.4422 54.0667 16.4422C53.9938 16.4422 53.9393 16.3877 53.9393 16.3236C53.9393 16.0417 54.7768 12.9375 54.804 12.8286L54.7403 12.8013L54.1853 12.865L54.158 12.8922L54.0671 13.2931H54.0491C54.0219 13.038 53.7215 12.8013 53.3302 12.8013C52.1195 12.8013 50.7271 14.5034 50.7271 15.8414C50.7271 16.1054 50.7543 16.9151 51.6646 16.9151C52.2109 16.9151 52.6931 16.642 53.4484 15.5319L53.4664 15.5499C53.3206 16.1049 53.2754 16.3052 53.2754 16.5147C53.2754 16.6692 53.2754 16.9059 53.6578 16.9059C54.0491 16.9059 54.3587 16.5783 54.905 15.9047L54.7948 15.8138V15.8138ZM57.4981 13.2106H56.7336L55.9326 16.2415C55.9234 16.2687 55.9234 16.2868 55.9234 16.3144C55.9234 16.3961 55.969 16.469 56.0691 16.469C56.2514 16.469 56.5698 16.0413 56.7972 15.7501L56.9154 15.8138C56.4512 16.5147 56.0964 16.9151 55.623 16.9151C55.4408 16.9151 55.1861 16.8242 55.1861 16.5511C55.1861 16.4145 55.3591 15.8595 55.3955 15.7137L56.0507 13.2106H55.3771C55.3683 13.1562 55.3683 13.1105 55.3955 13.0648C55.45 12.9827 55.7047 12.919 55.8597 12.8374C56.1601 12.6824 56.597 12.2731 56.8517 11.9543C56.8881 11.909 56.9246 11.8269 57.0067 11.8453C57.0704 11.8269 57.0884 11.909 57.0704 11.9819L56.8157 12.9195H57.5438L57.4981 13.2106ZM59.2458 15.8779C58.8906 16.4149 58.4905 16.9156 57.9807 16.9156C57.553 16.9156 57.553 16.5151 57.553 16.3513C57.553 15.9236 58.2718 13.6664 58.2718 13.4113C58.2718 13.2198 58.199 13.1746 57.6983 13.1746V13.0288C58.044 13.0108 58.7993 12.865 59.1545 12.8013L59.1817 12.8198L58.3808 15.7505C58.3443 15.8779 58.235 16.2419 58.235 16.3513C58.235 16.415 58.2987 16.4878 58.3808 16.4878C58.4901 16.4878 58.754 16.3056 59.1269 15.7778L59.2458 15.8779ZM59.0636 11.8273C58.8361 11.8273 58.6267 11.6727 58.6267 11.3539C58.6267 11.0356 58.8361 10.8625 59.0544 10.8625C59.3548 10.8625 59.5093 11.1629 59.5093 11.3632C59.5098 11.545 59.364 11.8273 59.0636 11.8273ZM62.2223 12.9924C62.6588 12.9924 62.8595 13.3928 62.8595 13.8662C62.8595 14.8402 62.1406 16.7241 61.1029 16.7241C60.648 16.7241 60.3748 16.3965 60.3748 15.8775C60.3744 14.8038 61.2026 12.9924 62.2223 12.9924V12.9924ZM62.286 12.8009C60.9571 12.8009 59.6099 14.2667 59.6099 15.6043C59.6099 16.3597 60.0196 16.9147 60.9844 16.9147C62.3769 16.9147 63.624 15.2675 63.624 14.1477C63.6236 13.5474 63.3417 12.8009 62.286 12.8009V12.8009Z" fill="white"/>
<path d="M67.5922 15.8688C67.1373 16.4787 66.8185 16.8977 66.3271 16.8977C65.9082 16.8977 65.8901 16.6245 65.8901 16.3606C65.8901 16.1423 66.5638 13.9212 66.5638 13.5572C66.5638 13.3934 66.5093 13.266 66.3363 13.266C65.8994 13.266 65.3259 14.049 64.9983 14.5584C64.5793 15.1864 64.4612 15.5776 64.0879 16.8156H63.4055C63.6879 15.7871 64.2974 13.6569 64.2974 13.4659C64.2974 13.3293 64.2065 13.2292 63.7147 13.2292V13.0834C64.2061 12.9925 64.6979 12.9011 65.1893 12.801L65.2165 12.8195L64.6338 14.7218L64.6518 14.7402C65.0795 14.0666 65.917 12.8014 66.6727 12.8014C67.0916 12.8014 67.3007 13.0201 67.3007 13.4026C67.3007 13.7939 66.5726 16.0422 66.5726 16.3154C66.5726 16.4519 66.6999 16.4699 66.7184 16.4699C66.9006 16.4699 67.1281 16.1788 67.4649 15.7511L67.5922 15.8688V15.8688ZM68.4749 15.8231C68.4749 15.0037 69.2943 13.0017 70.3592 13.0017C70.6231 13.0017 70.8778 13.1747 70.8778 13.6116C70.8778 14.5035 69.986 16.4695 69.0212 16.4695C68.7753 16.4695 68.4749 16.3057 68.4749 15.8231ZM71.7789 15.8139C71.3692 16.2144 71.187 16.4423 71.0509 16.4423C70.978 16.4423 70.9235 16.3878 70.9235 16.3237C70.9235 16.0418 71.7609 12.9376 71.7882 12.8287L71.7245 12.8014L71.169 12.8651L71.1418 12.8923L71.0509 13.2933H71.0328C71.0056 13.0381 70.7052 12.8014 70.314 12.8014C69.1033 12.8014 67.7108 14.5035 67.7108 15.8416C67.7108 16.1055 67.738 16.9153 68.6483 16.9153C69.1942 16.9153 69.6768 16.6421 70.4321 15.532L70.4501 15.55C70.3043 16.1051 70.2591 16.3053 70.2591 16.5148C70.2591 16.6694 70.2591 16.906 70.6412 16.906C71.0328 16.906 71.342 16.5784 71.8883 15.9048L71.7789 15.8139V15.8139ZM73.8451 15.7775C73.3809 16.4783 73.0261 16.9153 72.4618 16.9153C72.0613 16.9153 72.0249 16.6061 72.0249 16.351C72.0249 16.1599 73.3445 11.4085 73.3445 11.2175C73.3445 10.9808 72.962 10.9808 72.7253 10.99V10.8442C73.2029 10.789 73.677 10.7069 74.1454 10.5983L74.1907 10.644L72.8162 15.914C72.7982 15.9957 72.7253 16.2416 72.7253 16.3418C72.7253 16.3962 72.7253 16.524 72.8619 16.524C73.0893 16.524 73.2804 16.2693 73.7265 15.6958L73.8451 15.7775V15.7775ZM75.1215 10.8036H75.2149C75.3017 10.8036 75.372 10.8467 75.372 10.9766C75.372 11.0973 75.3289 11.1836 75.217 11.1836H75.1215V10.8036ZM74.8668 10.7944C74.9783 10.8057 74.9762 10.8036 74.9762 10.9037V11.4475C74.9762 11.5451 74.9783 11.5451 74.8668 11.5568V11.5908H75.2309V11.5568C75.1173 11.5455 75.1215 11.5455 75.1215 11.4475V11.2246H75.2284C75.3716 11.4362 75.4286 11.5908 75.5015 11.5908H75.6448V11.5702C75.6012 11.5384 75.5333 11.4613 75.4743 11.3792L75.3444 11.2016C75.447 11.1676 75.5241 11.0809 75.5241 10.9653C75.5241 10.8241 75.3989 10.7605 75.2648 10.7605H74.8664V10.7944H74.8668ZM76 11.1882C76 10.7579 75.6657 10.4077 75.233 10.4077C75.1306 10.4074 75.0292 10.4275 74.9347 10.4666C74.8401 10.5058 74.7543 10.5634 74.6821 10.636C74.6099 10.7086 74.5529 10.7947 74.5143 10.8895C74.4757 10.9843 74.4562 11.0858 74.4571 11.1882C74.4571 11.618 74.7964 11.964 75.233 11.964C75.6657 11.964 76 11.618 76 11.1882ZM75.8747 11.1882C75.8747 11.5497 75.5903 11.8685 75.233 11.8685C74.8689 11.8685 74.5824 11.5497 74.5824 11.1882C74.5824 10.8262 74.8668 10.5032 75.233 10.5032C75.5928 10.5032 75.8747 10.8241 75.8747 11.1882Z" fill="white"/>
<path d="M20.0392 19.2142C25.246 19.2397 29.5156 14.9697 29.4792 9.77418C29.5152 4.43669 25.246 0.167026 20.0392 0.168702H9.6059C4.33669 0.167445 0.0670276 4.43669 0 9.77418C0.0670276 14.9697 4.33669 19.2393 9.60548 19.2142H20.0392Z" fill="#9E9E9E"/>
<path d="M0.662842 9.77409C0.714788 4.79436 4.69413 0.814595 9.606 0.831352C14.5124 0.814595 18.4922 4.79436 18.5487 9.77451C18.4922 14.6126 14.5124 18.5924 9.606 18.5518C4.69413 18.5924 0.714788 14.6122 0.662842 9.77409V9.77409Z" fill="white"/>
<path d="M7.61822 4.47485C5.56006 5.4036 4.01591 7.3893 3.97485 9.77422C4.01591 12.0695 5.48633 14.0912 7.61822 14.9081V4.47485ZM11.593 14.9085C13.7198 14.0916 15.1898 12.0695 15.2363 9.77464C15.1898 7.33819 13.7194 5.31605 11.593 4.47527V14.9085Z" fill="#9E9E9E"/>
</svg>
