<svg width="28" height="21" viewBox="0 0 28 21" fill="none" xmlns="http://www.w3.org/2000/svg">
<path d="M27.1 5.07714C27.1013 4.52768 26.6525 4.0832 26.1004 4.0832H26.0004V4.08363H23.7682C23.2178 4.08363 22.7686 4.5289 22.7686 5.07689V16.2558H20.9256C19.9081 16.2558 19.0848 15.4372 19.0848 14.4291V5.07689C19.0848 4.52771 18.636 4.0832 18.0847 4.0832H15.7516C15.2001 4.0832 14.7517 4.52772 14.7508 5.07674V5.07686C14.7502 7.11587 14.7511 9.62811 14.7522 11.6306L14.7537 14.1291L14.7542 14.8613L14.7544 15.0578L14.7544 15.1086L14.7544 15.1215L14.7544 15.1247L14.7544 15.1256V15.1258C14.7546 16.7365 15.6646 18.0298 16.8852 18.9164C18.1049 19.8023 19.6463 20.2914 20.9386 20.2914C21.8055 20.2914 22.5202 20.0812 23.0204 19.6902C23.5234 19.2971 23.801 18.7277 23.801 18.0324V17.2821H24.4167C25.0781 17.2821 25.7479 16.935 26.2497 16.4349C26.7515 15.9349 27.1 15.2672 27.1 14.6076V5.07714ZM27.1 5.07714L27 5.07689H27.1V5.07714ZM12.3173 16.1595V16.1553V16.1552H12.3168L12.3173 16.1595ZM12.3173 16.1595C12.3172 16.1634 12.3171 16.1672 12.3168 16.1711C12.3153 16.194 12.3101 16.2165 12.3012 16.2378C12.2987 16.2437 12.296 16.2495 12.293 16.2552H12.2168V16.2026V16.1673C12.2172 16.1636 12.2173 16.16 12.2173 16.1563L12.3173 16.1595ZM13.2483 16.3061C13.2492 14.229 13.2485 11.7168 13.2476 9.7238L13.2462 7.24308L13.2457 6.5185L13.2455 6.32431L13.2455 6.27412L13.2455 6.26137L13.2455 6.25816L13.2455 6.25736V6.25715H13.2451C13.2451 6.25713 13.2451 6.25711 13.2451 6.25709L13.2455 6.25709L13.2453 6.0739L13.2413 6.07648C13.1763 4.54954 12.2895 3.31962 11.115 2.46643C9.89543 1.58051 8.35412 1.09141 7.06191 1.09141C6.19481 1.09141 5.48005 1.30159 4.97971 1.69252C4.4766 2.0856 4.19898 2.65501 4.19898 3.35036V4.10076H3.5837C2.92215 4.10076 2.25224 4.44776 1.75033 4.94788C1.24845 5.44797 0.9 6.11567 0.9 6.77534V16.3059C0.9 16.8551 1.34858 17.2996 1.89978 17.2996H4.23144C4.24596 17.2996 4.25881 17.2978 4.26516 17.2969L4.26623 17.2967C4.27024 17.2961 4.27211 17.2959 4.27284 17.2958V17.2959L4.2775 17.2957C4.80591 17.271 5.23111 16.8397 5.23111 16.3059V5.127H7.07443C8.09145 5.127 8.91523 5.94565 8.91523 6.95373V16.306C8.91523 16.8552 9.36392 17.2997 9.91501 17.2997H12.2485C12.7999 17.2997 13.2483 16.8563 13.2483 16.3061ZM13.2483 16.3061L13.1483 16.306L13.2483 16.3061ZM26.0679 14.5076H26.0678V14.6076C26.0678 14.9625 25.846 15.3753 25.5162 15.7044C25.1865 16.0334 24.7728 16.2549 24.4171 16.2549H23.8021C23.8029 11.4836 23.8029 6.17371 23.8021 5.22574L23.8021 5.22474C23.8019 5.21009 23.8048 5.19547 23.8105 5.18169C23.8162 5.16791 23.8248 5.15515 23.8359 5.14422C23.847 5.13329 23.8603 5.12441 23.8753 5.11826C23.8902 5.11214 23.9063 5.10887 23.9226 5.1087H25.9467C26.014 5.1087 26.0679 5.16368 26.0679 5.22752V14.5076ZM22.7688 18.038V18.0381C22.7688 18.2705 22.7102 18.5722 22.4633 18.8167C22.2161 19.0614 21.7636 19.2654 20.9393 19.2654C19.339 19.2654 18.0502 18.6585 17.1618 17.8361C16.2708 17.0114 15.7885 15.9765 15.7885 15.1255V15.1255L15.6885 15.1255L15.7885 15.1254V15.1252L15.7885 15.1244L15.7885 15.1213L15.7885 15.1089L15.7885 15.0602L15.7884 14.8713L15.788 14.1656L15.7867 11.7411C15.7858 9.78815 15.7849 7.3137 15.7849 5.22763L15.7849 5.22645C15.7847 5.21178 15.7875 5.19715 15.7933 5.18337C15.799 5.16958 15.8076 5.15681 15.8187 5.14589C15.8298 5.13495 15.8432 5.12609 15.8582 5.11996C15.8731 5.11385 15.8893 5.11062 15.9057 5.11051H17.9323C18.0001 5.11051 18.054 5.16524 18.054 5.22944V14.4293C18.054 16.0052 19.3414 17.2823 20.927 17.2823H22.7697L22.7688 18.038ZM12.0966 16.272C12.0965 16.272 12.0965 16.272 12.0964 16.272L10.07 16.272C10.0007 16.272 9.94806 16.2167 9.94835 16.154V16.1536V6.95363C9.94835 5.37776 8.66056 4.10076 7.07531 4.10076H5.23232V3.34472C5.23232 3.11288 5.2909 2.8111 5.53786 2.56647C5.78499 2.32168 6.23757 2.11744 7.0618 2.11744C8.66219 2.11744 9.9511 2.72431 10.8397 3.54666C11.7308 4.37135 12.2132 5.4063 12.2132 6.25727V6.25733L12.3132 6.25727L12.0966 16.272ZM1.93289 16.1558H1.9329V16.1546V6.77629C1.9329 6.42135 2.15475 6.00815 2.48447 5.67875C2.81419 5.34935 3.22785 5.12764 3.58337 5.12764H4.19896C4.19788 11.9309 4.19789 15.4155 4.19898 16.1544L4.19899 16.1552C4.19928 16.1851 4.18737 16.2145 4.16482 16.2368C4.14229 16.2592 4.11092 16.2726 4.07736 16.2732H2.05375H2.04471C1.97737 16.2659 1.93221 16.2127 1.93289 16.1558Z" fill="white" stroke="white" stroke-width="0.2"/>
</svg>
